<svg xmlns:xlink="http://www.w3.org/1999/xlink" width="60" xmlns="http://www.w3.org/2000/svg" height="60" id="screenshot-4b6372f0-06d6-80ee-8003-685865c8c9b9" viewBox="-0 -0 60 60" style="-webkit-print-color-adjust: exact;" fill="none" version="1.1"><g id="shape-4b6372f0-06d6-80ee-8003-685865c8c9b9" rx="0" ry="0"><g id="shape-4b6372f0-06d6-80ee-8003-685865c8c9ba"><g class="fills" id="fills-4b6372f0-06d6-80ee-8003-685865c8c9ba"><rect rx="0" ry="0" x="0.000016675135043442424" y="5.699225766875315e-7" transform="matrix(1.000000, 0.000000, 0.000001, 1.000000, -0.000017, -0.000000)" width="59.999991733222714" height="59.99999997116191"/></g></g><g id="shape-4b6372f0-06d6-80ee-8003-685865c8c9bb" width="24" height="24" rx="0" ry="0" style="fill: rgb(0, 0, 0);"><g id="shape-4b6372f0-06d6-80ee-8003-685865c8c9bd"><g class="fills" id="fills-4b6372f0-06d6-80ee-8003-685865c8c9bd"><path fill="none" rx="0" ry="0" d="M0.000,-0.000L60.000,-0.000L60.000,60.000L0.000,60.000ZZ" style="fill: none;"/></g></g><g id="shape-4b6372f0-06d6-80ee-8003-685865c8c9be"><g class="fills" id="fills-4b6372f0-06d6-80ee-8003-685865c8c9be"><path rx="0" ry="0" d="M29.500,4.000C43.584,4.000,55.000,15.416,55.000,29.500C55.000,43.584,43.584,55.000,29.500,55.000C15.416,55.000,4.000,43.584,4.000,29.500C4.000,15.416,15.416,4.000,29.500,4.000ZZM29.500,14.200C21.050,14.200,14.200,21.050,14.200,29.500C14.200,37.950,21.050,44.800,29.500,44.800C37.950,44.800,44.800,37.950,44.800,29.500C44.800,21.050,37.950,14.200,29.500,14.200ZZM29.500,18.663C32.003,18.662,34.274,20.127,35.307,22.406C36.340,24.685,35.944,27.358,34.294,29.240C35.735,30.403,36.640,32.088,36.640,33.962C36.640,37.481,33.442,40.337,29.500,40.337C25.558,40.337,22.360,37.481,22.360,33.962C22.360,32.088,23.265,30.403,24.706,29.237C23.058,27.355,22.663,24.684,23.696,22.405C24.729,20.127,26.999,18.663,29.500,18.663ZZM29.500,31.413C27.580,31.413,26.185,32.657,26.185,33.962C26.185,35.268,27.580,36.513,29.500,36.513C31.420,36.513,32.815,35.268,32.815,33.962C32.815,32.657,31.420,31.413,29.500,31.413ZZM29.500,22.487C28.092,22.487,26.950,23.629,26.950,25.037C26.950,26.446,28.092,27.587,29.500,27.587C30.908,27.587,32.050,26.446,32.050,25.037C32.050,23.629,30.908,22.487,29.500,22.487ZZ" style="fill: rgb(255, 255, 255); fill-opacity: 1;"/></g></g></g></g></svg>